<svg width="303" height="83" viewBox="0 0 303 83" fill="none" xmlns="http://www.w3.org/2000/svg">
<path fill-rule="evenodd" clip-rule="evenodd" d="M83.8388 22.7307C85.3452 27.1982 86.1205 31.9863 86.1205 36.8218H56.1457L26.1709 36.8218C26.1709 31.9863 26.9462 27.1982 28.4526 22.7307C29.959 18.2633 32.1669 14.2041 34.9503 10.7849C37.7337 7.36564 41.0381 4.65337 44.6748 2.8029C48.3115 0.952425 52.2093 0 56.1457 0C60.082 0 63.9798 0.952425 67.6166 2.80289C71.2533 4.65337 74.5577 7.36564 77.3411 10.7849C80.1245 14.2041 82.3324 18.2633 83.8388 22.7307ZM71.1987 20.258C72.0093 22.3256 72.4264 24.5416 72.4264 26.7795H56.2979H40.1693C40.1693 24.5416 40.5865 22.3256 41.397 20.258C42.2076 18.1904 43.3956 16.3118 44.8932 14.7293C46.3909 13.1469 48.1689 11.8916 50.1257 11.0352C52.0825 10.1788 54.1798 9.738 56.2979 9.738C58.4159 9.738 60.5132 10.1788 62.47 11.0352C64.4268 11.8916 66.2048 13.1469 67.7025 14.7293C69.2002 16.3118 70.3882 18.1904 71.1987 20.258Z" fill="#FFF8E7"/>
<path fill-rule="evenodd" clip-rule="evenodd" d="M36.8219 38.952C36.8324 42.6102 37.4332 46.2308 38.5902 49.6087C39.7512 52.9983 41.4495 56.0769 43.5882 58.669C45.727 61.261 48.2642 63.3156 51.0551 64.7155C53.846 66.1154 56.8359 66.8332 59.854 66.8279C62.8722 66.8226 65.8595 66.0942 68.6454 64.6845C71.4314 63.2747 73.9613 61.2111 76.0909 58.6116C77.9417 56.3523 79.4586 53.7267 80.5783 50.8502H91.6909C92.8301 54.1881 94.4371 57.2275 96.4326 59.8142C98.5612 62.5734 101.09 64.7636 103.875 66.2597C106.66 67.7559 109.646 68.5287 112.663 68.534C115.68 68.5393 118.669 67.7771 121.459 66.2908C124.249 64.8045 126.786 62.6232 128.924 59.8716C131.062 57.1199 132.76 53.8518 133.921 50.2537C134.907 47.1974 135.489 43.9539 135.647 40.6581L146.279 40.6769C146.27 46.0092 145.395 51.2877 143.706 56.2111C142.017 61.1345 139.546 65.6064 136.434 69.3714C133.322 73.1364 129.631 76.1208 125.57 78.1543C121.51 80.1877 117.159 81.2303 112.768 81.2225C108.377 81.2148 104.03 80.1568 99.977 78.1091C95.9236 76.0613 92.2426 73.0639 89.1441 69.2879C87.8834 67.7515 86.7291 66.0984 85.6908 64.3459C84.9454 65.4733 84.1494 66.5537 83.3057 67.5819C80.2073 71.3578 76.5262 74.3553 72.4728 76.403C68.4194 78.4507 64.073 79.5087 59.6817 79.5164C55.2904 79.5242 50.9403 78.4816 46.8796 76.4482C42.819 74.4148 39.1274 71.4304 36.0157 67.6654C32.9039 63.9003 30.4329 59.4285 28.7437 54.5051C27.0546 49.5816 26.1803 44.3031 26.1709 38.9708L36.8219 38.952Z" fill="#FFF8E7"/>
<rect width="18.9288" height="6.04271" transform="matrix(0.915985 0.401213 -0.309593 0.950869 1.87073 22.9502)" fill="#FFF8E7"/>
<rect width="18.9288" height="6.04271" transform="matrix(0.915985 -0.401213 -0.309593 -0.950869 1.87073 51.6781)" fill="#FFF8E7"/>
<rect x="89.6075" y="27.0471" width="53.3962" height="9.82" fill="#FFF8E7"/>
<rect x="89.6075" y="9.24829" width="9.20625" height="27.6187" fill="#FFF8E7"/>
<path d="M292.501 81.2516H283.371V48.8519H272.821V40.4668H303V48.8519H292.501V81.2516Z" fill="#FFF8E7"/>
<path d="M247.48 81.2516H238.351V40.4668H247.48V56.4385H259.907V40.4668H269.037V81.2516H259.907V64.8236H247.48V81.2516Z" fill="#FFF8E7"/>
<path d="M215.172 82.1644C204.876 82.1644 198.739 73.1518 198.739 60.8308C198.739 48.5668 204.876 39.5542 216.288 39.5542C226.23 39.5542 231.758 46.171 232.62 53.9858H223.288C222.628 51.1907 221.157 47.9393 216.136 47.9393C210.151 47.9393 208.071 53.1872 208.071 60.8308C208.071 68.5314 210.151 73.7792 216.491 73.7792C220.701 73.7792 223.643 70.9272 223.744 66.9913H216.846V59.5758H233.178V81.2517H226.635L225.722 76.0609H225.621C223.896 79.7686 220.498 82.1644 215.172 82.1644Z" fill="#FFF8E7"/>
<path d="M194.184 81.2516H185.054V40.4668H194.184V81.2516Z" fill="#FFF8E7"/>
<path d="M159.264 81.2516H150.134V40.4668H167.227C175.291 40.4668 180.161 44.6879 180.161 52.1033C180.161 57.8075 177.32 61.1729 172.806 62.3138V62.4279C181.885 64.1962 180.668 78.0144 180.668 80.6812V81.2516H171.183C171.183 77.3228 172.806 68.1008 164.944 67.0483H159.264V81.2516ZM157.926 58.6631L165.452 58.6631C169.104 58.6631 171.031 57.18 171.031 53.7575C171.031 50.335 169.104 48.8519 165.452 48.8519L157.926 48.8519V58.6631Z" fill="#FFF8E7"/>
</svg>
