<svg width="64" height="48" viewBox="0 0 64 48" fill="none" xmlns="http://www.w3.org/2000/svg">
<g id="&#240;&#159;&#166;&#134; icon &#34;Envelope&#34;">
<path id="Vector" d="M57.2857 0H5.9261C2.65317 0 0 2.65317 0 5.9261V41.4827C0 44.7557 2.65317 47.4088 5.9261 47.4088H57.2857C60.5586 47.4088 63.2118 44.7557 63.2118 41.4827V5.9261C63.2118 2.65317 60.5586 0 57.2857 0ZM57.2857 5.9261V10.9639C54.5174 13.2182 50.1042 16.7235 40.6695 24.1112C38.5903 25.7467 34.4717 29.6758 31.6059 29.63C28.7406 29.6763 24.6206 25.7461 22.5423 24.1112C13.109 16.7246 8.69471 13.2185 5.9261 10.9639V5.9261H57.2857ZM5.9261 41.4827V18.5682C8.75508 20.8215 12.7669 23.9834 18.8818 28.7717C21.5803 30.8959 26.306 35.585 31.6059 35.5565C36.8797 35.585 41.5456 30.9639 44.3289 28.7727C50.4436 23.9845 54.4566 20.8217 57.2857 18.5683V41.4827H5.9261Z" fill="white"/>
</g>
</svg>
