<svg width="48" height="47" viewBox="0 0 48 47" fill="none" xmlns="http://www.w3.org/2000/svg">
<g id="&#240;&#159;&#166;&#134; icon &#34;social linkedin&#34;">
<path id="Vector_2" d="M43.7305 0H3.68131C1.76606 0 0.211792 1.51771 0.211792 3.38661V43.6088C0.211792 45.4803 1.76606 47 3.68131 47H43.7305C45.6471 47 47.2118 45.4803 47.2118 43.6088V3.38661C47.2118 1.51771 45.6471 0 43.7305 0ZM14.1512 40.0505H7.17693V17.6217H14.1512V40.0505ZM10.6641 14.555C8.42961 14.555 6.62338 12.7442 6.62338 10.5117C6.62338 8.28244 8.42961 6.47164 10.6641 6.47164C12.8933 6.47164 14.7041 8.28244 14.7041 10.5117C14.7041 12.7442 12.8933 14.555 10.6641 14.555ZM40.2597 40.0505H33.2965V29.1439C33.2965 26.5419 33.2456 23.1965 29.673 23.1965C26.0448 23.1965 25.4919 26.0302 25.4919 28.9553V40.0512H18.5235V17.6217H25.2112V20.6846H25.3065C26.2374 18.9221 28.5117 17.0623 31.9035 17.0623C38.9574 17.0623 40.2604 21.7062 40.2604 27.7476L40.2597 40.0505Z" fill="white"/>
</g>
</svg>
